<?xml version="1.0" encoding="utf-8"?>
<!-- Generator: Adobe Illustrator 16.0.3, SVG Export Plug-In . SVG Version: 6.00 Build 0)  -->
<!DOCTYPE svg PUBLIC "-//W3C//DTD SVG 1.1//EN" "http://www.w3.org/Graphics/SVG/1.1/DTD/svg11.dtd">
<svg version="1.1" xmlns="http://www.w3.org/2000/svg" xmlns:xlink="http://www.w3.org/1999/xlink" x="0px" y="0px" width="500px"
	 height="500px" viewBox="0 0 500 500" enable-background="new 0 0 500 500" xml:space="preserve">
<g id="Capa_1" display="none">
	
		<rect x="86.316" y="74.132" display="inline" fill="none" stroke="#808080" stroke-width="0.5" stroke-miterlimit="10" width="351.744" height="351.737"/>
	
		<line display="inline" fill="none" stroke="#808080" stroke-width="0.5" stroke-miterlimit="10" x1="86.316" y1="425.869" x2="438.061" y2="425.869"/>
	
		<line display="inline" fill="none" stroke="#808080" stroke-width="0.5" stroke-miterlimit="10" x1="86.316" y1="408.281" x2="438.061" y2="408.281"/>
	
		<line display="inline" fill="none" stroke="#808080" stroke-width="0.5" stroke-miterlimit="10" x1="86.316" y1="390.695" x2="438.061" y2="390.695"/>
	
		<line display="inline" fill="none" stroke="#808080" stroke-width="0.5" stroke-miterlimit="10" x1="86.316" y1="373.108" x2="438.061" y2="373.108"/>
	
		<line display="inline" fill="none" stroke="#808080" stroke-width="0.5" stroke-miterlimit="10" x1="86.316" y1="355.522" x2="438.061" y2="355.522"/>
	
		<line display="inline" fill="none" stroke="#808080" stroke-width="0.5" stroke-miterlimit="10" x1="86.316" y1="337.936" x2="438.061" y2="337.936"/>
	
		<line display="inline" fill="none" stroke="#808080" stroke-width="0.5" stroke-miterlimit="10" x1="86.316" y1="320.347" x2="438.061" y2="320.347"/>
	
		<line display="inline" fill="none" stroke="#808080" stroke-width="0.5" stroke-miterlimit="10" x1="86.316" y1="302.76" x2="438.061" y2="302.76"/>
	
		<line display="inline" fill="none" stroke="#808080" stroke-width="0.5" stroke-miterlimit="10" x1="86.316" y1="285.175" x2="438.061" y2="285.175"/>
	
		<line display="inline" fill="none" stroke="#808080" stroke-width="0.5" stroke-miterlimit="10" x1="86.316" y1="267.588" x2="438.061" y2="267.588"/>
	
		<line display="inline" fill="none" stroke="#808080" stroke-width="0.5" stroke-miterlimit="10" x1="86.316" y1="250.001" x2="438.061" y2="250.001"/>
	
		<line display="inline" fill="none" stroke="#808080" stroke-width="0.5" stroke-miterlimit="10" x1="86.316" y1="232.414" x2="438.061" y2="232.414"/>
	
		<line display="inline" fill="none" stroke="#808080" stroke-width="0.5" stroke-miterlimit="10" x1="86.316" y1="214.827" x2="438.061" y2="214.827"/>
	
		<line display="inline" fill="none" stroke="#808080" stroke-width="0.5" stroke-miterlimit="10" x1="86.316" y1="197.241" x2="438.061" y2="197.241"/>
	
		<line display="inline" fill="none" stroke="#808080" stroke-width="0.5" stroke-miterlimit="10" x1="86.316" y1="179.654" x2="438.061" y2="179.654"/>
	
		<line display="inline" fill="none" stroke="#808080" stroke-width="0.5" stroke-miterlimit="10" x1="86.316" y1="162.067" x2="438.061" y2="162.067"/>
	
		<line display="inline" fill="none" stroke="#808080" stroke-width="0.5" stroke-miterlimit="10" x1="86.316" y1="144.48" x2="438.061" y2="144.48"/>
	
		<line display="inline" fill="none" stroke="#808080" stroke-width="0.5" stroke-miterlimit="10" x1="86.316" y1="126.894" x2="438.061" y2="126.894"/>
	
		<line display="inline" fill="none" stroke="#808080" stroke-width="0.5" stroke-miterlimit="10" x1="86.316" y1="109.307" x2="438.061" y2="109.307"/>
	
		<line display="inline" fill="none" stroke="#808080" stroke-width="0.5" stroke-miterlimit="10" x1="86.316" y1="91.719" x2="438.061" y2="91.719"/>
	
		<line display="inline" fill="none" stroke="#808080" stroke-width="0.5" stroke-miterlimit="10" x1="438.061" y1="74.132" x2="438.061" y2="425.869"/>
	
		<line display="inline" fill="none" stroke="#808080" stroke-width="0.5" stroke-miterlimit="10" x1="420.475" y1="74.132" x2="420.475" y2="425.869"/>
	
		<line display="inline" fill="none" stroke="#808080" stroke-width="0.5" stroke-miterlimit="10" x1="402.888" y1="74.132" x2="402.888" y2="425.869"/>
	
		<line display="inline" fill="none" stroke="#808080" stroke-width="0.5" stroke-miterlimit="10" x1="385.299" y1="74.132" x2="385.299" y2="425.869"/>
	
		<line display="inline" fill="none" stroke="#808080" stroke-width="0.5" stroke-miterlimit="10" x1="367.712" y1="74.132" x2="367.712" y2="425.869"/>
	
		<line display="inline" fill="none" stroke="#808080" stroke-width="0.5" stroke-miterlimit="10" x1="350.126" y1="74.132" x2="350.126" y2="425.869"/>
	
		<line display="inline" fill="none" stroke="#808080" stroke-width="0.5" stroke-miterlimit="10" x1="332.539" y1="74.132" x2="332.539" y2="425.869"/>
	
		<line display="inline" fill="none" stroke="#808080" stroke-width="0.5" stroke-miterlimit="10" x1="314.95" y1="74.132" x2="314.95" y2="425.869"/>
	
		<line display="inline" fill="none" stroke="#808080" stroke-width="0.5" stroke-miterlimit="10" x1="297.363" y1="74.132" x2="297.363" y2="425.869"/>
	
		<line display="inline" fill="none" stroke="#808080" stroke-width="0.5" stroke-miterlimit="10" x1="279.777" y1="74.132" x2="279.777" y2="425.869"/>
	
		<line display="inline" fill="none" stroke="#808080" stroke-width="0.5" stroke-miterlimit="10" x1="262.188" y1="74.132" x2="262.188" y2="425.869"/>
	
		<line display="inline" fill="none" stroke="#808080" stroke-width="0.5" stroke-miterlimit="10" x1="244.602" y1="74.132" x2="244.602" y2="425.869"/>
	
		<line display="inline" fill="none" stroke="#808080" stroke-width="0.5" stroke-miterlimit="10" x1="227.015" y1="74.132" x2="227.015" y2="425.869"/>
	
		<line display="inline" fill="none" stroke="#808080" stroke-width="0.5" stroke-miterlimit="10" x1="209.428" y1="74.132" x2="209.428" y2="425.869"/>
	
		<line display="inline" fill="none" stroke="#808080" stroke-width="0.5" stroke-miterlimit="10" x1="191.84" y1="74.132" x2="191.84" y2="425.869"/>
	
		<line display="inline" fill="none" stroke="#808080" stroke-width="0.5" stroke-miterlimit="10" x1="174.253" y1="74.132" x2="174.253" y2="425.869"/>
	
		<line display="inline" fill="none" stroke="#808080" stroke-width="0.5" stroke-miterlimit="10" x1="156.666" y1="74.132" x2="156.666" y2="425.869"/>
	
		<line display="inline" fill="none" stroke="#808080" stroke-width="0.5" stroke-miterlimit="10" x1="139.078" y1="74.132" x2="139.078" y2="425.869"/>
	
		<line display="inline" fill="none" stroke="#808080" stroke-width="0.5" stroke-miterlimit="10" x1="121.491" y1="74.132" x2="121.491" y2="425.869"/>
	
		<line display="inline" fill="none" stroke="#808080" stroke-width="0.5" stroke-miterlimit="10" x1="103.904" y1="74.132" x2="103.904" y2="425.869"/>
</g>
<g id="Capa_2">
	<path d="M210,144.363v289.448c0,0,82,0.819,82-81.952c0-82.772,0-125.133,0-125.133s1.063-81.875,83.834-81.875
		c0,0,41.59-0.488,41.59-82.852H210V144.363z"/>
	<path d="M170,62v82.363c0,0-83.71,0.25-83.71-82.363"/>
</g>
</svg>
